<svg width="80" height="80" viewBox="0 0 80 80" fill="none" xmlns="http://www.w3.org/2000/svg">
<path d="M8.33333 30H71.6667M43.3333 43.3334H56.6667M43.3333 56.6667H50M23.3333 20H23.3633M36.6667 20H36.6967M30 30V71.6667M8.33333 40C8.33333 25.0734 8.33333 17.6067 12.97 12.97C17.6067 8.33337 25.07 8.33337 40 8.33337C54.9267 8.33337 62.3933 8.33337 67.03 12.97C71.6667 17.6067 71.6667 25.07 71.6667 40C71.6667 54.9267 71.6667 62.3934 67.03 67.03C62.3933 71.6667 54.93 71.6667 40 71.6667C25.0733 71.6667 17.6067 71.6667 12.97 67.03C8.33333 62.3934 8.33333 54.93 8.33333 40Z" stroke="white" stroke-width="4" stroke-linecap="round" stroke-linejoin="round"/>
</svg>
