<svg width="80" height="80" viewBox="0 0 80 80" fill="none" xmlns="http://www.w3.org/2000/svg">
<path d="M67.5 72.5H32.5C29.75 72.5 27.5 70.25 27.5 67.5V57.5H32.5V67.5H67.5V32.5H57.5V27.5H67.5C70.25 27.5 72.5 29.75 72.5 32.5V67.5C72.5 70.25 70.25 72.5 67.5 72.5Z" fill="white"/>
<path d="M27.5 47.5H52.5V52.5H27.5V47.5ZM27.5 37.5H52.5V42.5H27.5V37.5ZM27.5 27.5H52.5V32.5H27.5V27.5Z" fill="white"/>
<path d="M12.5 7.5H47.5C50.25 7.5 52.5 9.75 52.5 12.5V22.5H47.5V12.5H12.5V47.5H22.5V52.5H12.5C9.75 52.5 7.5 50.25 7.5 47.5V12.5C7.5 9.75 9.75 7.5 12.5 7.5Z" fill="white"/>
</svg>
